<svg xmlns="http://www.w3.org/2000/svg" width="21.782" height="22.295" viewBox="0 0 21.782 22.295">
  <g id="Group_639" data-name="Group 639" transform="translate(-397.687 -376.082)">
    <g id="Group_634" data-name="Group 634">
      <g id="Group_632" data-name="Group 632">
        <path id="Path_12" data-name="Path 12" d="M414.167,394.327a.5.5,0,0,1-.4-.795l4.587-6.3-4.587-6.3a.5.5,0,1,1,.808-.588l4.8,6.6a.5.5,0,0,1,0,.588l-4.8,6.6a.5.5,0,0,1-.4.206Z" fill="#3e4c69"/>
      </g>
      <g id="Group_633" data-name="Group 633">
        <path id="Path_13" data-name="Path 13" d="M418.969,387.73H406.56a.5.5,0,1,1,0-1h12.409a.5.5,0,0,1,0,1Z" fill="#3e4c69"/>
      </g>
    </g>
    <g id="Group_635" data-name="Group 635">
      <path id="Path_14" data-name="Path 14" d="M398.187,398.377a.5.5,0,0,1-.5-.5v-21.3a.5.5,0,0,1,1,0v21.3a.5.5,0,0,1-.5.5Z" fill="#3e4c69"/>
    </g>
    <g id="Group_638" data-name="Group 638">
      <g id="Group_636" data-name="Group 636">
        <path id="Path_15" data-name="Path 15" d="M411.57,398.377H398.187a.5.5,0,0,1,0-1H411.57a.5.5,0,0,1,0,1Z" fill="#3e4c69"/>
      </g>
      <g id="Group_637" data-name="Group 637">
        <path id="Path_16" data-name="Path 16" d="M411.57,377.082H398.187a.5.5,0,0,1,0-1H411.57a.5.5,0,0,1,0,1Z" fill="#3e4c69"/>
      </g>
    </g>
  </g>
</svg>
